<svg xmlns="http://www.w3.org/2000/svg" viewBox="0 0 30 30"><defs><style>.cls-1{fill:#FFFFFF;}</style></defs><g id="Layer_2" data-name="Layer 2"><g id="Layer_1-2" data-name="Layer 1"><g id="Down"><path class="cls-1" d="M24,30H6a6,6,0,0,1-6-6V6A6,6,0,0,1,6,0H24a6,6,0,0,1,6,6V24A6,6,0,0,1,24,30ZM6,2A4,4,0,0,0,2,6V24a4,4,0,0,0,4,4H24a4,4,0,0,0,4-4V6a4,4,0,0,0-4-4Z"/><path class="cls-1" d="M15,20a1,1,0,0,1-.71-.3l-7-7a1,1,0,0,1,0-1.41,1,1,0,0,1,1.42,0L15,17.62l6.29-6.29a1,1,0,0,1,1.42,0,1,1,0,0,1,0,1.41l-7,7A1,1,0,0,1,15,20Z"/></g></g></g></svg>